# File created by Blade
# Date/Time:  Thu Sep 25 21:01:51 2014
# Frame Rate: 120.000 fps
#------------------------------------------------------
:FULLY-SPECIFIED
:DEGREES
2668
root 4.262435 6.054561 -6.743247 30.963330 5.157294 -32.903504
Spine -10.231315 2.234629 42.976688
Head -50.210715 -0.244044 25.054974
LeftShoulder -6.462800 13.920642 13.970834
LeftArm 40.034727 52.320896 -49.496140
LeftForeArm 15.702358 0.000000 44.064395
LeftHand -30.525064 0.000000 17.932235
LeftHandThumb1 -26.253704 0.000000 33.147579
RightShoulder -30.259573 13.058139 -24.265790
RightArm -65.590123 59.388397 20.484963
RightForeArm 39.843369 -0.000000 111.616970
RightHand -2.067001 -0.000000 14.070575
RightHandThumb1 -24.326973 -0.000000 -32.862282
LeftUpLeg -110.261093 -17.656145 -39.951005
LeftLeg 134.317889 -0.000000 -0.000000
LeftFoot 42.467110 8.904042 -22.178629
LeftToeBase 8.558002 -0.000000 -0.000000
RightUpLeg -27.443720 50.053903 -62.355936
RightLeg 135.659649 -0.000000 -0.000000
RightFoot 39.348532 6.275129 -16.390123
RightToeBase 17.145786 -0.000000 -0.000000
2669
root 4.261098 6.054362 -6.741596 30.991663 5.167328 -32.895693
Spine -10.252890 2.221354 42.976582
Head -50.441073 -0.227309 25.075133
LeftShoulder -6.456990 13.917924 14.009364
LeftArm 39.961891 52.301572 -49.600229
LeftForeArm 15.765056 -0.000000 44.053083
LeftHand -30.577453 0.000000 17.781933
LeftHandThumb1 -26.253704 0.000000 33.147579
RightShoulder -30.281807 13.028487 -24.238844
RightArm -65.578551 59.451572 20.501363
RightForeArm 39.888223 -0.000000 111.580015
RightHand -2.071163 -0.000000 14.112906
RightHandThumb1 -24.326973 -0.000000 -32.862282
LeftUpLeg -110.281738 -17.671385 -39.929339
LeftLeg 134.329022 -0.000000 -0.000000
LeftFoot 42.437152 9.016578 -22.376396
LeftToeBase 8.637296 -0.000000 -0.000000
RightUpLeg -27.408717 49.999688 -62.314298
RightLeg 135.666517 -0.000000 -0.000000
RightFoot 39.353192 6.316139 -16.338602
RightToeBase 17.018506 -0.000000 -0.000000
2670
root 4.260177 6.054371 -6.739714 31.013109 5.167963 -32.889603
Spine -10.258647 2.233106 42.974676
Head -50.701691 -0.218998 25.084326
LeftShoulder -6.434310 13.893974 14.028509
LeftArm 39.888430 52.261680 -49.688366
LeftForeArm 15.891777 0.000000 43.967173
LeftHand -30.636341 -0.000000 17.707937
LeftHandThumb1 -26.253704 0.000000 33.147579
RightShoulder -30.332841 13.041092 -24.238438
RightArm -65.595045 59.477222 20.486998
RightForeArm 39.952162 -0.000000 111.548718
RightHand -2.065340 -0.000000 14.134055
RightHandThumb1 -24.326973 -0.000000 -32.862282
LeftUpLeg -110.294253 -17.686591 -39.930598
LeftLeg 134.330950 -0.000000 -0.000000
LeftFoot 42.430420 8.986391 -22.331900
LeftToeBase 8.728935 -0.000000 -0.000000
RightUpLeg -27.395055 49.957950 -62.292902
RightLeg 135.676111 -0.000000 -0.000000
RightFoot 39.372661 6.356422 -16.320073
RightToeBase 17.090060 -0.000000 -0.000000
2671
root 4.259357 6.054609 -6.737856 31.040292 5.166993 -32.884063
Spine -10.272656 2.223847 42.980560
Head -50.933253 -0.170916 25.086126
LeftShoulder -6.441009 13.899206 14.042924
LeftArm 39.894513 52.284678 -49.672130
LeftForeArm 15.895853 -0.000000 43.990172
LeftHand -30.355779 -0.000000 17.542801
LeftHandThumb1 -26.253704 0.000000 33.147579
RightShoulder -30.338685 13.042817 -24.220479
RightArm -65.632076 59.514470 20.453039
RightForeArm 40.050155 -0.000000 111.515233
RightHand -2.053619 0.000000 14.197851
RightHandThumb1 -24.326973 -0.000000 -32.862282
LeftUpLeg -110.309589 -17.696790 -39.926956
LeftLeg 134.338867 -0.000000 -0.000000
LeftFoot 42.431454 8.996268 -22.375139
LeftToeBase 8.646237 -0.000000 -0.000000
RightUpLeg -27.390262 49.915490 -62.281782
RightLeg 135.686120 -0.000000 -0.000000
RightFoot 39.383888 6.439181 -16.324221
RightToeBase 17.152438 -0.000000 -0.000000
2672
root 4.258417 6.054438 -6.735079 31.055273 5.166333 -32.879688
Spine -10.274685 2.215858 42.981195
Head -51.169228 -0.175046 25.110524
LeftShoulder -6.437635 13.904816 14.053986
LeftArm 39.921050 52.291587 -49.638624
LeftForeArm 15.895747 -0.000000 43.992585
LeftHand -30.389817 0.000000 17.505119
LeftHandThumb1 -26.253704 0.000000 33.147579
RightShoulder -30.351195 13.056286 -24.205051
RightArm -65.663927 59.523769 20.418531
RightForeArm 40.118689 -0.000000 111.482921
RightHand -2.028249 -0.000000 14.230088
RightHandThumb1 -24.326973 -0.000000 -32.862282
LeftUpLeg -110.315793 -17.701748 -39.923443
LeftLeg 134.348747 -0.000000 -0.000000
LeftFoot 42.416386 9.001689 -22.414569
LeftToeBase 8.642467 -0.000000 -0.000000
RightUpLeg -27.375736 49.886226 -62.263582
RightLeg 135.693777 -0.000000 -0.000000
RightFoot 39.401795 6.486115 -16.287693
RightToeBase 17.170877 -0.000000 -0.000000
